<?xml version="1.0" encoding="utf-8"?>
<!-- Generator: Adobe Illustrator 26.0.3, SVG Export Plug-In . SVG Version: 6.00 Build 0)  -->
<svg version="1.1" id="Layer_1" xmlns="http://www.w3.org/2000/svg" xmlns:xlink="http://www.w3.org/1999/xlink" x="0px" y="0px"
	 viewBox="0 0 328.9 555.6" style="enable-background:new 0 0 328.9 555.6;" xml:space="preserve">
<g>
	<path d="M318.5,245.8c-0.5-1-1-1.9-1.5-2.9c-0.3-0.6-0.6-1.1-1-1.7c-0.9-1.5-1.8-3.1-2.8-4.5c-0.5-0.7-1-1.4-1.5-2.2
		c-1.5-2.2-3.2-4.4-4.9-6.5c-14.8-18-36-33.9-63.7-47.7l-22-11l-32-15.9c-12.1-6.2-21.4-13.1-27.8-20.8c-6.4-7.7-9.6-16.6-9.6-26.8
		c0-14.7,4.7-25.8,14.1-33.5c9.4-7.7,22.6-11.5,39.7-11.5c0.8,0,1.6,0,2.5,0c0,0,0,0,0,0c0.7,0,1.4,0.1,2,0.1
		c2.4,0.1,4.9,0.4,7.3,0.7c0.7,0.1,1.3,0.2,2,0.3c0.7,0.1,1.3,0.2,2,0.4V0.6c-0.9-0.1-1.9-0.1-2.8-0.2c-1-0.1-1.9-0.1-2.9-0.1
		c-0.7-0.1-1.3-0.1-2-0.1c-1.2-0.1-2.4-0.1-3.7-0.1C208.1,0,206.6,0,205,0c-39.3,0-69.7,9.2-91.1,27.7
		c-21.5,18.5-32.2,44.5-32.2,78.2c0,24.3,7.3,45.7,21.9,64.4c14.6,18.6,35.4,34.3,62.3,47l55.1,26.2l4.9,2.3
		c22.1,10.1,33.1,24.9,33.1,44.3c0,14.9-5.6,26.1-16.7,33.8c-5.6,3.9-11.6,3.8-21.4,1v-0.4v-64l-61.7-29.3c-1.3,0.8-1.7,1-2.9,1.9
		v67.7l-91.7-33.6h0V114.9h0C34.6,100.6,0,122.5,0,155.7v281.8c0,17.9,14.5,32.3,32.3,32.3s32.3-14.5,32.3-32.3V327.5h0l12.5,4.6
		l79.3,29.1v24.5v137.7c0,17.9,14.5,32.3,32.3,32.3c17.9,0,32.3-14.5,32.3-32.3V384.8v-0.4c29.1,7.5,52.2,0.1,72.1-15
		c23.8-18.1,35.7-44.5,35.7-79C328.9,274.2,325.4,259.4,318.5,245.8z"/>
</g>
</svg>
